<?xml version="1.0" standalone="no"?>
<!DOCTYPE svg PUBLIC "-//W3C//DTD SVG 20010904//EN"
 "http://www.w3.org/TR/2001/REC-SVG-20010904/DTD/svg10.dtd">
<svg version="1.0" xmlns="http://www.w3.org/2000/svg"
 width="260.000000pt" height="260.000000pt" viewBox="0 0 260.000000 260.000000"
 preserveAspectRatio="xMidYMid meet">
<metadata>
Created by potrace 1.14, written by Peter Selinger 2001-2017
</metadata>
<g transform="translate(0.000000,260.000000) scale(0.100000,-0.100000)"
fill="#000000" stroke="none">
<path d="M1150 2593 c-154 -23 -288 -63 -410 -121 -85 -40 -225 -130 -271
-172 -139 -131 -160 -153 -226 -245 -114 -159 -193 -351 -227 -555 -14 -84
-15 -340 -1 -405 19 -93 28 -128 51 -200 72 -225 209 -428 399 -590 25 -22 54
-44 62 -49 9 -5 24 -16 35 -25 86 -74 309 -169 489 -207 129 -27 381 -25 517
5 252 55 452 162 641 344 61 59 165 187 200 248 93 157 147 308 176 483 12 76
13 319 1 391 -44 274 -172 527 -364 721 -30 30 -57 54 -60 54 -4 0 -13 9 -20
20 -7 11 -19 20 -27 20 -8 0 -15 4 -15 9 0 5 -21 23 -47 40 -27 17 -52 34 -58
39 -26 21 -159 88 -235 117 -74 28 -143 47 -265 71 -35 7 -309 12 -345 7z"/>
</g>
</svg>
